<svg xmlns="http://www.w3.org/2000/svg" viewBox="0 0 1100.07 992.65"><defs><style>.cls-1{fill:#f3f3f3;}.cls-2{fill:#f39323;}</style></defs><g id="Layer_2" data-name="Layer 2"><g id="Layer_1-2" data-name="Layer 1"><path class="cls-1" d="M661.71,973.05a51.63,51.63,0,0,0,26.13,7.37c14.91,0,23.62-7.87,23.62-19.26,0-10.56-6-16.59-21.27-22.45-18.43-6.53-29.82-16.08-29.82-32,0-17.59,14.57-30.65,36.52-30.65,11.56,0,19.93,2.68,25,5.52l-4,11.9a45,45,0,0,0-21.45-5.36c-15.41,0-21.27,9.21-21.27,16.92,0,10.55,6.87,15.74,22.45,21.78,19.09,7.37,28.81,16.58,28.81,33.16,0,17.42-12.9,32.5-39.53,32.5-10.89,0-22.79-3.18-28.82-7.2Z"/><path class="cls-1" d="M763.05,886.44v23.29h21.11V921H763.05v43.72c0,10.06,2.85,15.75,11.06,15.75a32.92,32.92,0,0,0,8.54-1l.67,11.05c-2.85,1.17-7.37,2-13.07,2-6.86,0-12.39-2.18-15.91-6.2-4.19-4.35-5.7-11.55-5.7-21.1V921H736.08V909.73h12.56V890.3Z"/><path class="cls-1" d="M868.58,968.69c0,8.38.17,15.75.67,22.12H856.18l-.83-13.24H855a30.49,30.49,0,0,1-26.8,15.08c-12.73,0-28-7-28-35.51V909.73H815v44.89c0,15.41,4.69,25.8,18.1,25.8,9.88,0,16.75-6.87,19.43-13.4a21.52,21.52,0,0,0,1.34-7.54V909.73h14.74Z"/><path class="cls-1" d="M963.05,871.87v98c0,7.2.17,15.41.67,20.94H950.49l-.67-14.07h-.34c-4.52,9-14.4,15.91-27.64,15.91-19.6,0-34.67-16.58-34.67-41.21-.17-27,16.58-43.55,36.35-43.55,12.39,0,20.77,5.86,24.46,12.39h.33V871.87Zm-14.74,70.86a26.17,26.17,0,0,0-.67-6.2,21.69,21.69,0,0,0-21.27-17.09c-15.25,0-24.29,13.41-24.29,31.33,0,16.42,8,30,23.95,30,9.88,0,18.93-6.54,21.61-17.59a25.74,25.74,0,0,0,.67-6.37Z"/><path class="cls-1" d="M1003.92,887c.16,5-3.52,9-9.38,9a8.76,8.76,0,0,1-8.88-9,9,9,0,0,1,9.21-9.22C1000.4,877.73,1003.92,881.75,1003.92,887ZM987.5,990.81V909.73h14.74v81.08Z"/><path class="cls-1" d="M1100.07,949.6c0,30-20.77,43-40.37,43-22,0-38.87-16.08-38.87-41.71,0-27.14,17.76-43.05,40.21-43.05C1084.32,907.89,1100.07,924.8,1100.07,949.6Zm-64.33.84c0,17.75,10.22,31.15,24.63,31.15,14.07,0,24.62-13.23,24.62-31.49,0-13.74-6.87-31.16-24.29-31.16S1035.74,935,1035.74,950.44Z"/><path class="cls-2" d="M247,31.1C197,56.44,153.65,94,117.8,136.76a734,734,0,0,0-51.33,69.55c-18.21,27.85-33.53,57.44-43.89,89.14C12.27,327,7.05,359.93,3.67,392.85a668.46,668.46,0,0,0-3.2,94.38,580.51,580.51,0,0,0,12.34,99.43,474.7,474.7,0,0,0,28.75,88.39c22.19,51.38,55.35,99.31,97.61,136.23A352.11,352.11,0,0,0,283.09,886.8c53.44,13.76,108.63,15.37,163.1,7.74a398.75,398.75,0,0,0,74.24-17.77c26.74-9.19,53.2-20.78,77.34-35.56,26.81-16.4,49.9-38.11,65.26-65.75,14.56-26.19,22.7-56.32,22.47-86.34-.1-14.53-1.63-30.06-7-43.69-3.84-9.82-8.28-18.15-15.49-26s-16.22-12.57-25.94-16.12c-8.93-3.27-18.81-4.3-28.17-5.39a172.13,172.13,0,0,0-24.13-1c-17.72.42-35.38,3-52.84,5.87-15.46,2.53-30.86,5.5-46.39,7.63l7.31-1c-19.18,2.55-38.65,3.45-57.89.94l7.31,1A128.19,128.19,0,0,1,411,603.12l6.57,2.77a97,97,0,0,1-20.51-11.75l5.57,4.3a91.38,91.38,0,0,1-16.12-16.11l4.31,5.57a107.43,107.43,0,0,1-13-22.72l2.77,6.58c-5.84-14-9.16-28.81-11.18-43.8l1,7.31c-3.28-25.34-4-51.53-.68-76.9l-1,7.31A160.65,160.65,0,0,1,379,426l-2.77,6.57a117.33,117.33,0,0,1,14.86-25.82l-4.31,5.57a110.13,110.13,0,0,1,19.13-19l-5.57,4.31a122.37,122.37,0,0,1,25.95-15.1l-6.57,2.77a142.19,142.19,0,0,1,35.54-9.7l-7.32,1a156.78,156.78,0,0,1,40.66-.08l-7.32-1a152.31,152.31,0,0,1,38.25,10.26L512.94,383c13.76,5.85,26.29,14,38.87,22,15,9.48,30.29,18.3,47.17,23.93,17.83,5.95,37.53,7.45,55.89,3.1,19.4-4.59,34.61-16.88,46.33-32.47,9.16-12.19,14.94-27.24,18.69-41.92a253.87,253.87,0,0,0,6.78-44.2c2-27.65-.79-55.86-7.07-82.82A297,297,0,0,0,639.31,87.68c-19.62-19.24-42.34-36-67-48.25C541.33,24,508.13,14,474.05,8.22,441,2.62,406.78-1.33,373.22.42,340.71,2.12,308.78,9,278,19.41c-8.23,2.78-16.38,5.79-24.48,8.92C246.65,31,240.94,34.39,237.09,41c-3.46,5.89-4.92,14.59-2.78,21.2S240.59,75.26,247,78.63c6.17,3.26,14.41,5.4,21.2,2.77,29-11.19,58.66-20.56,89.49-24.79l-7.32,1c33.52-4.44,67.29-2.19,100.69,2.3l-7.32-1c31.39,4.31,62.43,11.46,91.75,23.66l-6.58-2.78a247.79,247.79,0,0,1,55.32,32.1l-5.57-4.31a260,260,0,0,1,45.51,45.76l-4.3-5.57a275.92,275.92,0,0,1,35.43,60.82L652.48,202A270.64,270.64,0,0,1,671,269.81l-1-7.32a248.69,248.69,0,0,1,.18,64.5l1-7.32c-1.88,14-4.79,27.86-10.22,40.92l2.78-6.58a85.09,85.09,0,0,1-10.44,18.22l4.3-5.57a61.37,61.37,0,0,1-10.53,10.47l5.57-4.3a55.08,55.08,0,0,1-10.48,6.09l6.57-2.77a59,59,0,0,1-13.56,3.76l7.32-1a74.5,74.5,0,0,1-19.45-.09l7.31,1a102.89,102.89,0,0,1-24.21-6.77l6.57,2.78c-23.66-10-43.47-27-66.66-38a183.94,183.94,0,0,0-69.28-17.51c-44.24-2.38-91.68,12.74-122.49,45.5-37.8,40.21-44.31,97.57-40.82,150.36,1.79,27,6.39,53,17.27,77.84,10.36,23.65,29,44.28,52.09,56.11,23.7,12.16,50.29,16.8,76.76,16.7,27.26-.11,54.16-5.51,80.93-10,7.07-1.2,14.16-2.33,21.27-3.31l-7.32,1c18.57-2.48,37.31-3.69,56-1.37l-7.32-1c7.42,1,14.88,2.31,21.82,5.21l-6.57-2.77a38.47,38.47,0,0,1,7.55,4.51l-5.57-4.3a39.54,39.54,0,0,1,5.63,5.72L621.7,655A50.55,50.55,0,0,1,628,666.09l-2.77-6.58a84.61,84.61,0,0,1,5,19.62l-1-7.31a144.27,144.27,0,0,1,0,37.08l1-7.32a153.14,153.14,0,0,1-10.41,38.18l2.77-6.57a150.85,150.85,0,0,1-19.35,33.08l4.3-5.57A147.11,147.11,0,0,1,581.93,786l5.57-4.3c-19.22,14.68-41.18,25.79-63.38,35.22l6.57-2.78A401,401,0,0,1,429.15,841.8l7.32-1a394.68,394.68,0,0,1-103.69.17l7.32,1a355.77,355.77,0,0,1-89.89-24.23l6.57,2.77a317.29,317.29,0,0,1-70.11-40.8l5.57,4.3a334.66,334.66,0,0,1-58.75-59.16l4.3,5.57a391.52,391.52,0,0,1-50-86.13l2.78,6.57c-15.86-37.67-26-77.45-31.51-117.91l1,7.31c-7.31-54.91-6.45-111,.83-165.87l-1,7.32c4.39-32.35,11.66-64.35,24.27-94.54l-2.77,6.57c16.15-38.07,40-73,65.18-105.67l-4.3,5.57c24-31,51-59.8,82.1-83.9l-5.57,4.3a353.65,353.65,0,0,1,55.93-35.41C287.6,72.11,292.33,53,284.61,41,276.14,27.84,260.72,24.13,247,31.1Z"/><path class="cls-2" d="M795.47,586.29a36,36,0,0,1,4.72-1l-7.31,1a36.79,36.79,0,0,1,9.26,0l-7.32-1a38.57,38.57,0,0,1,9.66,2.65l-6.57-2.77a36.85,36.85,0,0,1,7.68,4.47L800,585.35a35.5,35.5,0,0,1,6.3,6.31l-4.3-5.57a69.25,69.25,0,0,1,7.66,13.51q3.39,7.41,6.55,14.93L813.46,608c6.68,15.89,12.49,32.29,14.82,49.44l-1-7.32a101.36,101.36,0,0,1,.22,26.56l1-7.31a87,87,0,0,1-5.89,21.94l2.78-6.58a72.18,72.18,0,0,1-9.21,15.89l4.3-5.57a60.42,60.42,0,0,1-10.59,10.61l5.57-4.31a54.65,54.65,0,0,1-11.81,6.92l6.57-2.78a56.84,56.84,0,0,1-14.15,3.85l7.32-1a63.82,63.82,0,0,1-16.91,0l7.31,1A67.36,67.36,0,0,1,777,704.66l6.58,2.77a64.29,64.29,0,0,1-13.78-8l5.57,4.3a63.38,63.38,0,0,1-11.18-11.2l4.3,5.57a70.76,70.76,0,0,1-9-15.39l2.77,6.57a77.82,77.82,0,0,1-5.38-19.82l1,7.32a80.24,80.24,0,0,1,0-21l-1,7.32a85.6,85.6,0,0,1,6-21.22l-2.77,6.58c4.43-10.5,10.48-20.19,16.85-29.6,2.68-4,5.59-7.79,8-11.91,2-3.41,3.81-7,5.7-10.43a90.5,90.5,0,0,1,7.54-12.06L794,590a39.25,39.25,0,0,1,6.7-6.87l-5.57,4.3a27.61,27.61,0,0,1,6-3.57l-6.58,2.77c.31-.12.61-.25.92-.36a26.53,26.53,0,0,0,19.71-22.88,20.93,20.93,0,0,0-.49-11l-2.78-6.57A27.7,27.7,0,0,0,802,536l-6.57-2.78a27.76,27.76,0,0,0-14.64,0A67.4,67.4,0,0,0,770.06,538a73,73,0,0,0-9.31,7c-4.22,3.57-7.57,8.29-10.8,12.68-3.93,5.36-6.9,11.34-10.05,17.17-3.59,6.65-8.1,12.67-12.28,19A173.82,173.82,0,0,0,714,617.44c-4.51,9.84-8.56,19.89-10.1,30.64a127.25,127.25,0,0,0-1.75,18.56A131.38,131.38,0,0,0,704,685.2c1.46,9.87,5,19.18,9.3,28.16a70.66,70.66,0,0,0,5.8,10,107.39,107.39,0,0,0,11.47,14.14,100.83,100.83,0,0,0,13.8,11.2,63.25,63.25,0,0,0,9.77,5.56A108.47,108.47,0,0,0,771,760.69a110.84,110.84,0,0,0,18,2.92,62.2,62.2,0,0,0,11.17.09,98.55,98.55,0,0,0,17.91-2.84,90.84,90.84,0,0,0,16.45-6.55c5.38-2.69,10-6.41,14.71-10.12a57.85,57.85,0,0,0,8-7.65c2.67-3.07,5.13-6.34,7.54-9.62q1.65-2.25,3.1-4.63a75.2,75.2,0,0,0,5-9.83,130.56,130.56,0,0,0,6.34-17,90.56,90.56,0,0,0,2.28-11.19,148,148,0,0,0,1.81-18.3,103.94,103.94,0,0,0-.67-13.2,199.63,199.63,0,0,0-3.24-20.91,193.75,193.75,0,0,0-8.31-27.15c-4.15-10.93-8.81-21.69-13.64-32.33a79.68,79.68,0,0,0-6.4-12c-1.85-2.72-3.94-5.28-6-7.86-.69-.87-1.41-1.72-2.17-2.53a72.44,72.44,0,0,0-9.57-7.91c-4.86-3.65-10.65-6-16.34-8.06a36.8,36.8,0,0,0-5.56-1.5c-3.2-.61-6.47-1-9.7-1.36-1-.11-2-.2-3-.23a34.41,34.41,0,0,0-5.37.2,82.68,82.68,0,0,0-12.6,2,30.87,30.87,0,0,0-16.44,12.65,20.54,20.54,0,0,0-3.27,10.23,20.93,20.93,0,0,0,.49,11l2.78,6.57a27.62,27.62,0,0,0,9.87,9.87l6.57,2.78a27.76,27.76,0,0,0,14.64,0Z"/><path class="cls-2" d="M793.11,441.64l-.32.05,7.31-1a33.44,33.44,0,0,1-8.48-.15l7.31,1a65.61,65.61,0,0,1-16.12-4.61l6.57,2.77A69.15,69.15,0,0,1,774.45,431l5.57,4.3a35.21,35.21,0,0,1-6.24-6.08l4.3,5.57a29.23,29.23,0,0,1-3.47-6l2.78,6.58a44.07,44.07,0,0,1-2.84-11.07l1,7.32a163.67,163.67,0,0,1-1-16.41,107.3,107.3,0,0,1,.64-17l-1,7.32a48.84,48.84,0,0,1,3.16-12l-2.78,6.58a43.62,43.62,0,0,1,5.5-9.25l-4.3,5.57a105.41,105.41,0,0,1,18.74-18.3l-5.57,4.3a77.7,77.7,0,0,1,16.73-10l-6.58,2.78a56.37,56.37,0,0,1,14-3.9l-7.32,1a50,50,0,0,1,13.11,0l-7.32-1a42.44,42.44,0,0,1,10.61,2.88l-6.58-2.77a37.24,37.24,0,0,1,7.86,4.59l-5.57-4.31a48.39,48.39,0,0,1,8.44,8.66l-4.3-5.57a68.15,68.15,0,0,1,8.5,14.67L827.75,383a69.89,69.89,0,0,1,4.76,17.51l-1-7.32a66.79,66.79,0,0,1,0,17.3l1-7.31a65.06,65.06,0,0,1-4.42,16l2.78-6.57a66.72,66.72,0,0,1-8.55,14.62l4.3-5.57a64,64,0,0,1-11.14,11.17l5.57-4.31a76.2,76.2,0,0,1-16.85,9.56l6.58-2.78c-5.77,2.44-11.71,4.41-17.65,6.37a30.77,30.77,0,0,0-16.44,12.65,20.54,20.54,0,0,0-3.27,10.23,20.93,20.93,0,0,0,.49,11l2.78,6.57a27.46,27.46,0,0,0,9.87,9.87l6.57,2.78a27.72,27.72,0,0,0,14.63,0c8.66-2.86,17.09-6,25.45-9.68a83.7,83.7,0,0,0,9.11-4.62,111.85,111.85,0,0,0,13-9.42c6.26-5.05,11.24-11.37,15.91-17.88s8.09-14.21,10.94-21.85,4.12-16.1,4.78-24.31c.69-8.52-.41-17.27-2.09-25.61a67.48,67.48,0,0,0-2.52-9.16A122.52,122.52,0,0,0,876,357.26a68.47,68.47,0,0,0-4.8-8A100.61,100.61,0,0,0,861,336.61a67.92,67.92,0,0,0-12.75-10.11,68.92,68.92,0,0,0-14.39-6.41c-5.07-1.7-10.49-2.23-15.77-2.86a47.68,47.68,0,0,0-8.94-.21c-8.46.57-16.84,2-24.69,5.21a115.74,115.74,0,0,0-14.7,6.89,84.71,84.71,0,0,0-7.94,5.34,162.17,162.17,0,0,0-19.26,16.6A130.3,130.3,0,0,0,732,363.83a42.59,42.59,0,0,0-5,8.56c-2.24,5.15-4.39,10.08-5.45,15.59a121.1,121.1,0,0,0-2.05,16.78,188.21,188.21,0,0,0,.29,19.44,156.15,156.15,0,0,0,1.88,16.43,42.43,42.43,0,0,0,2.44,9.06,77.6,77.6,0,0,0,4.56,10.2,67.21,67.21,0,0,0,6.92,9.26c3.37,4,7.92,7.15,12,10.17,6.56,4.81,13.7,7.91,21.21,11,7.81,3.2,15.81,4.63,24.21,5.47,5,.49,9.63-.36,14.64-1.06a26.52,26.52,0,0,0,19.72-22.88,20.89,20.89,0,0,0-.5-11l-2.77-6.58a27.78,27.78,0,0,0-9.87-9.87l-6.58-2.78a27.72,27.72,0,0,0-14.63,0Z"/></g></g></svg>